<svg width="18" height="15" viewBox="0 0 18 15" fill="none" xmlns="http://www.w3.org/2000/svg">
<path d="M17.7109 7.5C17.7109 7.85156 17.4375 8.125 17.125 8.125H2.90625L8.17969 13.9844C8.41406 14.2188 8.41406 14.6094 8.14062 14.8438C8.02344 14.9609 7.86719 15 7.75 15C7.55469 15 7.39844 14.9609 7.28125 14.8047L1.03125 7.92969C0.796875 7.69531 0.796875 7.34375 1.03125 7.10938L7.28125 0.234375C7.51562 -0.0390625 7.90625 -0.0390625 8.14062 0.195312C8.41406 0.429688 8.41406 0.820312 8.17969 1.05469L2.90625 6.875H17.125C17.4375 6.875 17.7109 7.1875 17.7109 7.5Z" fill="#14357A"/>
</svg>
